<svg xmlns="http://www.w3.org/2000/svg" width="420.0mm" height="297.0mm" viewBox="0 0 420.0 297.0" font-family="Liberation Sans, Arial, Helvetica, sans-serif">
<style>
.cut{stroke:#000;stroke-width:0.5;fill:none;stroke-linejoin:round}
.fold{stroke:#000;stroke-width:0.35;stroke-dasharray:3,1.5;fill:none}
.stitch{stroke:#000;stroke-width:0.3;stroke-dasharray:1.2,0.8;fill:none}
.hid{stroke:#000;stroke-width:0.3;stroke-dasharray:4,1,1,1;fill:none}
.thin{stroke:#000;stroke-width:0.25;fill:none}
.dim{stroke:#000;stroke-width:0.2;fill:none}
.cl{stroke:#000;stroke-width:0.2;stroke-dasharray:8,1.5,1.5,1.5;fill:none}
.leather{fill:#efe6d6;stroke:#000;stroke-width:0.5}
.band{fill:#d9c9a8;stroke:#000;stroke-width:0.35}
.elastic{fill:#cfd6dc;stroke:#000;stroke-width:0.35}
.mesh{fill:#e4e9ee;stroke:#000;stroke-width:0.35}
.needle{fill:#9aa3ab;stroke:#000;stroke-width:0.15}
.hatch{fill:url(#h45)}
.t{font-family:Liberation Sans, Arial, Helvetica, sans-serif;font-size:3px;fill:#000}
.ts{font-family:Liberation Sans, Arial, Helvetica, sans-serif;font-size:2.4px;fill:#000}
.tb{font-family:Liberation Sans, Arial, Helvetica, sans-serif;font-size:3px;font-weight:bold;fill:#000}
.tt{font-family:Liberation Sans, Arial, Helvetica, sans-serif;font-size:5px;font-weight:bold;fill:#000}
.tx{font-family:Liberation Sans, Arial, Helvetica, sans-serif;font-size:2.1px;fill:#000}
.wh{fill:#fff;stroke:none}
</style>
<defs>
 <marker id="ar" viewBox="0 0 10 10" refX="10" refY="5" markerUnits="userSpaceOnUse"
   markerWidth="3" markerHeight="3" orient="auto-start-reverse">
   <path d="M0,1.5 L10,5 L0,8.5 z" fill="#000"/>
 </marker>
 <marker id="dot" viewBox="0 0 10 10" refX="5" refY="5" markerUnits="userSpaceOnUse"
   markerWidth="2" markerHeight="2"><circle cx="5" cy="5" r="4" fill="#000"/></marker>
 <pattern id="h45" patternUnits="userSpaceOnUse" width="2" height="2" patternTransform="rotate(45)">
   <line x1="0" y1="0" x2="0" y2="2" stroke="#000" stroke-width="0.15"/>
 </pattern>
</defs>
<rect width="420.0" height="297.0" fill="#fff"/>
<rect x="10.000" y="10.000" width="400.000" height="277.000" rx="0" class="cut"/>
<rect x="210.000" y="257.000" width="200.000" height="30.000" rx="0" class="cut"/>
<line x1="210.000" y1="267.000" x2="410.000" y2="267.000" class="thin" />
<line x1="210.000" y1="277.000" x2="410.000" y2="277.000" class="thin" />
<line x1="330.000" y1="257.000" x2="330.000" y2="287.000" class="thin" />
<line x1="370.000" y1="267.000" x2="370.000" y2="287.000" class="thin" />
<text x="212.000" y="260.200" class="tx" text-anchor="start">PROJECT</text>
<text x="212.000" y="264.800" class="tb" text-anchor="start">INTERCHANGEABLE KNITTING NEEDLE CASE</text>
<text x="332.000" y="260.200" class="tx" text-anchor="start">CLIENT</text>
<text x="332.000" y="264.800" class="t" text-anchor="start">gsumano7 / ziqmac</text>
<text x="212.000" y="270.200" class="tx" text-anchor="start">SHEET TITLE</text>
<text x="212.000" y="274.800" class="tb" text-anchor="start">Needle panel A - base: 10 cm tips 2.0-5.0 mm (11 pairs)</text>
<text x="332.000" y="270.200" class="tx" text-anchor="start">SCALE</text>
<text x="332.000" y="274.800" class="t" text-anchor="start">1:1  (detail 2:1)</text>
<text x="372.000" y="270.200" class="tx" text-anchor="start">UNITS</text>
<text x="372.000" y="274.800" class="t" text-anchor="start">cm (page A3)</text>
<text x="212.000" y="280.200" class="tx" text-anchor="start">SOURCE</text>
<text x="212.000" y="284.800" class="t" text-anchor="start">Cardboard prototype, hand-measured (photos 1-5)</text>
<text x="332.000" y="280.200" class="tx" text-anchor="start">DATE / REV</text>
<text x="332.000" y="284.800" class="t" text-anchor="start">2026-10-01   Rev A</text>
<text x="372.000" y="280.200" class="tx" text-anchor="start">SHEET</text>
<text x="372.000" y="284.800" class="tb" text-anchor="start">3 of 7</text>
<text x="13.000" y="17.000" class="tt" text-anchor="start">SHEET 3  -  NEEDLE PANEL A - BASE: 10 CM TIPS 2.0-5.0 MM (11 PAIRS)</text>
<rect x="32.000" y="48.000" width="205.000" height="125.000" rx="0" class="leather"/>
<path d="M50.700,63.000 L51.700,79.000 L51.700,163.000 L49.700,163.000 L49.700,79.000 Z" class="needle"/>
<path d="M53.300,63.000 L54.300,79.000 L54.300,163.000 L52.300,163.000 L52.300,79.000 Z" class="needle"/>
<path d="M62.075,63.000 L63.200,79.000 L63.200,163.000 L60.950,163.000 L60.950,79.000 Z" class="needle"/>
<path d="M64.925,63.000 L66.050,79.000 L66.050,163.000 L63.800,163.000 L63.800,79.000 Z" class="needle"/>
<path d="M74.450,63.000 L75.700,79.000 L75.700,163.000 L73.200,163.000 L73.200,79.000 Z" class="needle"/>
<path d="M77.550,63.000 L78.800,79.000 L78.800,163.000 L76.300,163.000 L76.300,79.000 Z" class="needle"/>
<path d="M87.825,63.000 L89.200,79.000 L89.200,163.000 L86.450,163.000 L86.450,79.000 Z" class="needle"/>
<path d="M91.175,63.000 L92.550,79.000 L92.550,163.000 L89.800,163.000 L89.800,79.000 Z" class="needle"/>
<path d="M102.200,63.000 L103.700,79.000 L103.700,163.000 L100.700,163.000 L100.700,79.000 Z" class="needle"/>
<path d="M105.800,63.000 L107.300,79.000 L107.300,163.000 L104.300,163.000 L104.300,79.000 Z" class="needle"/>
<path d="M117.575,63.000 L119.200,79.000 L119.200,163.000 L115.950,163.000 L115.950,79.000 Z" class="needle"/>
<path d="M121.425,63.000 L123.050,79.000 L123.050,163.000 L119.800,163.000 L119.800,79.000 Z" class="needle"/>
<path d="M133.950,63.000 L135.700,79.000 L135.700,163.000 L132.200,163.000 L132.200,79.000 Z" class="needle"/>
<path d="M138.050,63.000 L139.800,79.000 L139.800,163.000 L136.300,163.000 L136.300,79.000 Z" class="needle"/>
<path d="M151.325,63.000 L153.200,79.000 L153.200,163.000 L149.450,163.000 L149.450,79.000 Z" class="needle"/>
<path d="M155.675,63.000 L157.550,79.000 L157.550,163.000 L153.800,163.000 L153.800,79.000 Z" class="needle"/>
<path d="M169.700,63.000 L171.700,79.000 L171.700,163.000 L167.700,163.000 L167.700,79.000 Z" class="needle"/>
<path d="M174.300,63.000 L176.300,79.000 L176.300,163.000 L172.300,163.000 L172.300,79.000 Z" class="needle"/>
<path d="M188.950,63.000 L191.200,79.000 L191.200,163.000 L186.700,163.000 L186.700,79.000 Z" class="needle"/>
<path d="M194.050,63.000 L196.300,79.000 L196.300,163.000 L191.800,163.000 L191.800,79.000 Z" class="needle"/>
<path d="M209.200,63.000 L211.700,79.000 L211.700,163.000 L206.700,163.000 L206.700,79.000 Z" class="needle"/>
<path d="M214.800,63.000 L217.300,79.000 L217.300,163.000 L212.300,163.000 L212.300,79.000 Z" class="needle"/>
<rect x="48.999" y="98.000" width="171.000" height="30.000" rx="0" class="band"/>
<line x1="49.000" y1="97.400" x2="49.000" y2="128.600" class="stitch" />
<line x1="55.000" y1="97.400" x2="55.000" y2="128.600" class="stitch" />
<text x="52.800" y="113.000" class="tx" text-anchor="middle" transform="rotate(-90 52.800 113.000)">2.0</text>
<line x1="60.000" y1="97.400" x2="60.000" y2="128.600" class="stitch" />
<line x1="67.000" y1="97.400" x2="67.000" y2="128.600" class="stitch" />
<text x="64.300" y="113.000" class="tx" text-anchor="middle" transform="rotate(-90 64.300 113.000)">2.25</text>
<line x1="72.000" y1="97.400" x2="72.000" y2="128.600" class="stitch" />
<line x1="80.000" y1="97.400" x2="80.000" y2="128.600" class="stitch" />
<text x="76.800" y="113.000" class="tx" text-anchor="middle" transform="rotate(-90 76.800 113.000)">2.5</text>
<line x1="85.000" y1="97.400" x2="85.000" y2="128.600" class="stitch" />
<line x1="94.000" y1="97.400" x2="94.000" y2="128.600" class="stitch" />
<text x="90.300" y="113.000" class="tx" text-anchor="middle" transform="rotate(-90 90.300 113.000)">2.75</text>
<line x1="99.000" y1="97.400" x2="99.000" y2="128.600" class="stitch" />
<line x1="109.000" y1="97.400" x2="109.000" y2="128.600" class="stitch" />
<text x="104.800" y="113.000" class="tx" text-anchor="middle" transform="rotate(-90 104.800 113.000)">3.0</text>
<line x1="114.000" y1="97.400" x2="114.000" y2="128.600" class="stitch" />
<line x1="125.000" y1="97.400" x2="125.000" y2="128.600" class="stitch" />
<text x="120.300" y="113.000" class="tx" text-anchor="middle" transform="rotate(-90 120.300 113.000)">3.25</text>
<line x1="130.000" y1="97.400" x2="130.000" y2="128.600" class="stitch" />
<line x1="142.000" y1="97.400" x2="142.000" y2="128.600" class="stitch" />
<text x="136.800" y="113.000" class="tx" text-anchor="middle" transform="rotate(-90 136.800 113.000)">3.5</text>
<line x1="147.000" y1="97.400" x2="147.000" y2="128.600" class="stitch" />
<line x1="160.000" y1="97.400" x2="160.000" y2="128.600" class="stitch" />
<text x="154.300" y="113.000" class="tx" text-anchor="middle" transform="rotate(-90 154.300 113.000)">3.75</text>
<line x1="165.000" y1="97.400" x2="165.000" y2="128.600" class="stitch" />
<line x1="179.000" y1="97.400" x2="179.000" y2="128.600" class="stitch" />
<text x="172.800" y="113.000" class="tx" text-anchor="middle" transform="rotate(-90 172.800 113.000)">4.0</text>
<line x1="184.000" y1="97.400" x2="184.000" y2="128.600" class="stitch" />
<line x1="199.000" y1="97.400" x2="199.000" y2="128.600" class="stitch" />
<text x="192.300" y="113.000" class="tx" text-anchor="middle" transform="rotate(-90 192.300 113.000)">4.5</text>
<line x1="204.000" y1="97.400" x2="204.000" y2="128.600" class="stitch" />
<line x1="220.000" y1="97.400" x2="220.000" y2="128.600" class="stitch" />
<text x="212.800" y="113.000" class="tx" text-anchor="middle" transform="rotate(-90 212.800 113.000)">5.0</text>
<text x="134.500" y="200.000" class="tb" text-anchor="middle">PANEL A - 20.5 x 12.5, fits BASE interior. Full size 1:1 - use as pattern.</text>
<line x1="31.200" y1="48.000" x2="23.800" y2="48.000" class="dim" />
<line x1="31.200" y1="63.000" x2="23.800" y2="63.000" class="dim" />
<line x1="25.000" y1="48.000" x2="25.000" y2="63.000" class="dim" marker-start="url(#ar)" marker-end="url(#ar)"/>
<text x="24.100" y="55.500" class="t" text-anchor="middle" transform="rotate(-90 24.100 55.500)">1.5</text>
<line x1="31.200" y1="63.000" x2="23.800" y2="63.000" class="dim" />
<line x1="31.200" y1="163.000" x2="23.800" y2="163.000" class="dim" />
<line x1="25.000" y1="63.000" x2="25.000" y2="163.000" class="dim" marker-start="url(#ar)" marker-end="url(#ar)"/>
<text x="24.100" y="113.000" class="t" text-anchor="middle" transform="rotate(-90 24.100 113.000)">10.0 tip</text>
<line x1="31.200" y1="163.000" x2="23.800" y2="163.000" class="dim" />
<line x1="31.200" y1="173.000" x2="23.800" y2="173.000" class="dim" />
<line x1="25.000" y1="163.000" x2="25.000" y2="173.000" class="dim" marker-start="url(#ar)" marker-end="url(#ar)"/>
<text x="24.100" y="168.000" class="t" text-anchor="middle" transform="rotate(-90 24.100 168.000)">1.0</text>
<line x1="31.200" y1="48.000" x2="15.800" y2="48.000" class="dim" />
<line x1="31.200" y1="173.000" x2="15.800" y2="173.000" class="dim" />
<line x1="17.000" y1="48.000" x2="17.000" y2="173.000" class="dim" marker-start="url(#ar)" marker-end="url(#ar)"/>
<text x="16.100" y="110.500" class="t" text-anchor="middle" transform="rotate(-90 16.100 110.500)">12.5</text>
<line x1="237.800" y1="48.000" x2="245.200" y2="48.000" class="dim" />
<line x1="237.800" y1="98.000" x2="245.200" y2="98.000" class="dim" />
<line x1="244.000" y1="48.000" x2="244.000" y2="98.000" class="dim" marker-start="url(#ar)" marker-end="url(#ar)"/>
<text x="243.100" y="73.000" class="t" text-anchor="middle" transform="rotate(-90 243.100 73.000)">5.0</text>
<line x1="237.800" y1="98.000" x2="245.200" y2="98.000" class="dim" />
<line x1="237.800" y1="128.000" x2="245.200" y2="128.000" class="dim" />
<line x1="244.000" y1="98.000" x2="244.000" y2="128.000" class="dim" marker-start="url(#ar)" marker-end="url(#ar)"/>
<text x="243.100" y="113.000" class="t" text-anchor="middle" transform="rotate(-90 243.100 113.000)">3.0 band</text>
<line x1="32.000" y1="173.800" x2="32.000" y2="184.200" class="dim" />
<line x1="49.000" y1="173.800" x2="49.000" y2="184.200" class="dim" />
<line x1="32.000" y1="183.000" x2="49.000" y2="183.000" class="dim" marker-start="url(#ar)" marker-end="url(#ar)"/>
<text x="40.500" y="182.100" class="t" text-anchor="middle">1.7</text>
<line x1="220.000" y1="173.800" x2="220.000" y2="184.200" class="dim" />
<line x1="237.000" y1="173.800" x2="237.000" y2="184.200" class="dim" />
<line x1="220.000" y1="183.000" x2="237.000" y2="183.000" class="dim" marker-start="url(#ar)" marker-end="url(#ar)"/>
<text x="228.500" y="182.100" class="t" text-anchor="middle">1.7</text>
<line x1="49.000" y1="173.800" x2="49.000" y2="184.200" class="dim" />
<line x1="220.000" y1="173.800" x2="220.000" y2="184.200" class="dim" />
<line x1="49.000" y1="183.000" x2="220.000" y2="183.000" class="dim" marker-start="url(#ar)" marker-end="url(#ar)"/>
<text x="134.500" y="182.100" class="t" text-anchor="middle">17.1 slot strip</text>
<line x1="32.000" y1="173.800" x2="32.000" y2="192.200" class="dim" />
<line x1="237.000" y1="173.800" x2="237.000" y2="192.200" class="dim" />
<line x1="32.000" y1="191.000" x2="237.000" y2="191.000" class="dim" marker-start="url(#ar)" marker-end="url(#ar)"/>
<text x="134.500" y="190.100" class="t" text-anchor="middle">20.5</text>
<line x1="32.000" y1="40.000" x2="237.000" y2="40.000" class="dim" />
<text x="32.000" y="29.000" class="tx" text-anchor="start">ORDINATE: stitch-line positions from left edge (cm)</text>
<line x1="32.000" y1="37.500" x2="32.000" y2="42.500" class="dim" />
<text x="32.000" y="38.800" class="tx" text-anchor="middle">0</text>
<line x1="49.000" y1="38.500" x2="49.000" y2="48.000" class="dim" />
<text x="49.700" y="37.800" class="tx" text-anchor="start" transform="rotate(-90 49.700 37.800)">1.7</text>
<line x1="55.000" y1="38.500" x2="55.000" y2="48.000" class="dim" />
<text x="55.700" y="37.800" class="tx" text-anchor="start" transform="rotate(-90 55.700 37.800)">2.3</text>
<line x1="60.000" y1="38.500" x2="60.000" y2="48.000" class="dim" />
<text x="60.700" y="37.800" class="tx" text-anchor="start" transform="rotate(-90 60.700 37.800)">2.8</text>
<line x1="67.000" y1="38.500" x2="67.000" y2="48.000" class="dim" />
<text x="67.700" y="37.800" class="tx" text-anchor="start" transform="rotate(-90 67.700 37.800)">3.5</text>
<line x1="72.000" y1="38.500" x2="72.000" y2="48.000" class="dim" />
<text x="72.700" y="37.800" class="tx" text-anchor="start" transform="rotate(-90 72.700 37.800)">4.0</text>
<line x1="80.000" y1="38.500" x2="80.000" y2="48.000" class="dim" />
<text x="80.700" y="37.800" class="tx" text-anchor="start" transform="rotate(-90 80.700 37.800)">4.8</text>
<line x1="85.000" y1="38.500" x2="85.000" y2="48.000" class="dim" />
<text x="85.700" y="37.800" class="tx" text-anchor="start" transform="rotate(-90 85.700 37.800)">5.3</text>
<line x1="94.000" y1="38.500" x2="94.000" y2="48.000" class="dim" />
<text x="94.700" y="37.800" class="tx" text-anchor="start" transform="rotate(-90 94.700 37.800)">6.2</text>
<line x1="99.000" y1="38.500" x2="99.000" y2="48.000" class="dim" />
<text x="99.700" y="37.800" class="tx" text-anchor="start" transform="rotate(-90 99.700 37.800)">6.7</text>
<line x1="109.000" y1="38.500" x2="109.000" y2="48.000" class="dim" />
<text x="109.700" y="37.800" class="tx" text-anchor="start" transform="rotate(-90 109.700 37.800)">7.7</text>
<line x1="114.000" y1="38.500" x2="114.000" y2="48.000" class="dim" />
<text x="114.700" y="37.800" class="tx" text-anchor="start" transform="rotate(-90 114.700 37.800)">8.2</text>
<line x1="125.000" y1="38.500" x2="125.000" y2="48.000" class="dim" />
<text x="125.700" y="37.800" class="tx" text-anchor="start" transform="rotate(-90 125.700 37.800)">9.3</text>
<line x1="130.000" y1="38.500" x2="130.000" y2="48.000" class="dim" />
<text x="130.700" y="37.800" class="tx" text-anchor="start" transform="rotate(-90 130.700 37.800)">9.8</text>
<line x1="142.000" y1="38.500" x2="142.000" y2="48.000" class="dim" />
<text x="142.700" y="37.800" class="tx" text-anchor="start" transform="rotate(-90 142.700 37.800)">11.0</text>
<line x1="147.000" y1="38.500" x2="147.000" y2="48.000" class="dim" />
<text x="147.700" y="37.800" class="tx" text-anchor="start" transform="rotate(-90 147.700 37.800)">11.5</text>
<line x1="160.000" y1="38.500" x2="160.000" y2="48.000" class="dim" />
<text x="160.700" y="37.800" class="tx" text-anchor="start" transform="rotate(-90 160.700 37.800)">12.8</text>
<line x1="165.000" y1="38.500" x2="165.000" y2="48.000" class="dim" />
<text x="165.700" y="37.800" class="tx" text-anchor="start" transform="rotate(-90 165.700 37.800)">13.3</text>
<line x1="179.000" y1="38.500" x2="179.000" y2="48.000" class="dim" />
<text x="179.700" y="37.800" class="tx" text-anchor="start" transform="rotate(-90 179.700 37.800)">14.7</text>
<line x1="184.000" y1="38.500" x2="184.000" y2="48.000" class="dim" />
<text x="184.700" y="37.800" class="tx" text-anchor="start" transform="rotate(-90 184.700 37.800)">15.2</text>
<line x1="199.000" y1="38.500" x2="199.000" y2="48.000" class="dim" />
<text x="199.700" y="37.800" class="tx" text-anchor="start" transform="rotate(-90 199.700 37.800)">16.7</text>
<line x1="204.000" y1="38.500" x2="204.000" y2="48.000" class="dim" />
<text x="204.700" y="37.800" class="tx" text-anchor="start" transform="rotate(-90 204.700 37.800)">17.2</text>
<line x1="220.000" y1="38.500" x2="220.000" y2="48.000" class="dim" />
<text x="220.700" y="37.800" class="tx" text-anchor="start" transform="rotate(-90 220.700 37.800)">18.8</text>
<line x1="237.000" y1="37.500" x2="237.000" y2="42.500" class="dim" />
<text x="258.000" y="22.000" class="tb" text-anchor="start">SLOT TABLE - panel A (positions from left edge, cm)</text>
<rect x="258.000" y="25.000" width="95.000" height="50.400" rx="0" class="thin"/>
<line x1="258.000" y1="29.200" x2="353.000" y2="29.200" class="thin" />
<text x="259.200" y="28.024" class="tb" text-anchor="start">#</text>
<line x1="266.000" y1="25.000" x2="266.000" y2="75.400" class="thin" />
<text x="267.200" y="28.024" class="tb" text-anchor="start">Size</text>
<line x1="284.000" y1="25.000" x2="284.000" y2="75.400" class="thin" />
<text x="285.200" y="28.024" class="tb" text-anchor="start">Slot w</text>
<line x1="299.000" y1="25.000" x2="299.000" y2="75.400" class="thin" />
<text x="300.200" y="28.024" class="tb" text-anchor="start">From</text>
<line x1="314.000" y1="25.000" x2="314.000" y2="75.400" class="thin" />
<text x="315.200" y="28.024" class="tb" text-anchor="start">To</text>
<line x1="329.000" y1="25.000" x2="329.000" y2="75.400" class="thin" />
<text x="330.200" y="28.024" class="tb" text-anchor="start">Holds</text>
<text x="259.200" y="32.224" class="ts" text-anchor="start">1</text>
<text x="267.200" y="32.224" class="ts" text-anchor="start">2.0 mm</text>
<text x="285.200" y="32.224" class="ts" text-anchor="start">0.6</text>
<text x="300.200" y="32.224" class="ts" text-anchor="start">1.7</text>
<text x="315.200" y="32.224" class="ts" text-anchor="start">2.3</text>
<text x="330.200" y="32.224" class="ts" text-anchor="start">2 x 10 cm</text>
<line x1="258.000" y1="33.400" x2="353.000" y2="33.400" class="dim" />
<text x="259.200" y="36.424" class="ts" text-anchor="start">2</text>
<text x="267.200" y="36.424" class="ts" text-anchor="start">2.25 mm</text>
<text x="285.200" y="36.424" class="ts" text-anchor="start">0.7</text>
<text x="300.200" y="36.424" class="ts" text-anchor="start">2.8</text>
<text x="315.200" y="36.424" class="ts" text-anchor="start">3.5</text>
<text x="330.200" y="36.424" class="ts" text-anchor="start">2 x 10 cm</text>
<line x1="258.000" y1="37.600" x2="353.000" y2="37.600" class="dim" />
<text x="259.200" y="40.624" class="ts" text-anchor="start">3</text>
<text x="267.200" y="40.624" class="ts" text-anchor="start">2.5 mm</text>
<text x="285.200" y="40.624" class="ts" text-anchor="start">0.8</text>
<text x="300.200" y="40.624" class="ts" text-anchor="start">4.0</text>
<text x="315.200" y="40.624" class="ts" text-anchor="start">4.8</text>
<text x="330.200" y="40.624" class="ts" text-anchor="start">2 x 10 cm</text>
<line x1="258.000" y1="41.800" x2="353.000" y2="41.800" class="dim" />
<text x="259.200" y="44.824" class="ts" text-anchor="start">4</text>
<text x="267.200" y="44.824" class="ts" text-anchor="start">2.75 mm</text>
<text x="285.200" y="44.824" class="ts" text-anchor="start">0.9</text>
<text x="300.200" y="44.824" class="ts" text-anchor="start">5.3</text>
<text x="315.200" y="44.824" class="ts" text-anchor="start">6.2</text>
<text x="330.200" y="44.824" class="ts" text-anchor="start">2 x 10 cm</text>
<line x1="258.000" y1="46.000" x2="353.000" y2="46.000" class="dim" />
<text x="259.200" y="49.024" class="ts" text-anchor="start">5</text>
<text x="267.200" y="49.024" class="ts" text-anchor="start">3.0 mm</text>
<text x="285.200" y="49.024" class="ts" text-anchor="start">1.0</text>
<text x="300.200" y="49.024" class="ts" text-anchor="start">6.7</text>
<text x="315.200" y="49.024" class="ts" text-anchor="start">7.7</text>
<text x="330.200" y="49.024" class="ts" text-anchor="start">2 x 10 cm</text>
<line x1="258.000" y1="50.200" x2="353.000" y2="50.200" class="dim" />
<text x="259.200" y="53.224" class="ts" text-anchor="start">6</text>
<text x="267.200" y="53.224" class="ts" text-anchor="start">3.25 mm</text>
<text x="285.200" y="53.224" class="ts" text-anchor="start">1.1</text>
<text x="300.200" y="53.224" class="ts" text-anchor="start">8.2</text>
<text x="315.200" y="53.224" class="ts" text-anchor="start">9.3</text>
<text x="330.200" y="53.224" class="ts" text-anchor="start">2 x 10 cm</text>
<line x1="258.000" y1="54.400" x2="353.000" y2="54.400" class="dim" />
<text x="259.200" y="57.424" class="ts" text-anchor="start">7</text>
<text x="267.200" y="57.424" class="ts" text-anchor="start">3.5 mm</text>
<text x="285.200" y="57.424" class="ts" text-anchor="start">1.2</text>
<text x="300.200" y="57.424" class="ts" text-anchor="start">9.8</text>
<text x="315.200" y="57.424" class="ts" text-anchor="start">11.0</text>
<text x="330.200" y="57.424" class="ts" text-anchor="start">2 x 10 cm</text>
<line x1="258.000" y1="58.600" x2="353.000" y2="58.600" class="dim" />
<text x="259.200" y="61.624" class="ts" text-anchor="start">8</text>
<text x="267.200" y="61.624" class="ts" text-anchor="start">3.75 mm</text>
<text x="285.200" y="61.624" class="ts" text-anchor="start">1.3</text>
<text x="300.200" y="61.624" class="ts" text-anchor="start">11.5</text>
<text x="315.200" y="61.624" class="ts" text-anchor="start">12.8</text>
<text x="330.200" y="61.624" class="ts" text-anchor="start">2 x 10 cm</text>
<line x1="258.000" y1="62.800" x2="353.000" y2="62.800" class="dim" />
<text x="259.200" y="65.824" class="ts" text-anchor="start">9</text>
<text x="267.200" y="65.824" class="ts" text-anchor="start">4.0 mm</text>
<text x="285.200" y="65.824" class="ts" text-anchor="start">1.4</text>
<text x="300.200" y="65.824" class="ts" text-anchor="start">13.3</text>
<text x="315.200" y="65.824" class="ts" text-anchor="start">14.7</text>
<text x="330.200" y="65.824" class="ts" text-anchor="start">2 x 10 cm</text>
<line x1="258.000" y1="67.000" x2="353.000" y2="67.000" class="dim" />
<text x="259.200" y="70.024" class="ts" text-anchor="start">10</text>
<text x="267.200" y="70.024" class="ts" text-anchor="start">4.5 mm</text>
<text x="285.200" y="70.024" class="ts" text-anchor="start">1.5</text>
<text x="300.200" y="70.024" class="ts" text-anchor="start">15.2</text>
<text x="315.200" y="70.024" class="ts" text-anchor="start">16.7</text>
<text x="330.200" y="70.024" class="ts" text-anchor="start">2 x 10 cm</text>
<line x1="258.000" y1="71.200" x2="353.000" y2="71.200" class="dim" />
<text x="259.200" y="74.224" class="ts" text-anchor="start">11</text>
<text x="267.200" y="74.224" class="ts" text-anchor="start">5.0 mm</text>
<text x="285.200" y="74.224" class="ts" text-anchor="start">1.6</text>
<text x="300.200" y="74.224" class="ts" text-anchor="start">17.2</text>
<text x="315.200" y="74.224" class="ts" text-anchor="start">18.8</text>
<text x="330.200" y="74.224" class="ts" text-anchor="start">2 x 10 cm</text>
<text x="258.000" y="81.400" class="tb" text-anchor="start">CONSTRUCTION NOTES</text>
<text x="258.000" y="85.100" class="ts" text-anchor="start">1. Slot widths (w) are finished inside widths, taken</text>
<text x="258.000" y="88.800" class="ts" text-anchor="start">   straight from the prototype: 0.6 cm for 2.0 mm,</text>
<text x="258.000" y="92.500" class="ts" text-anchor="start">   +0.1 cm per size step, to 2.2 cm for 10 mm. Each</text>
<text x="258.000" y="96.200" class="ts" text-anchor="start">   slot holds one PAIR, the two tips side by side.</text>
<text x="258.000" y="99.900" class="ts" text-anchor="start">2. Band: 25 mm knit elastic (drawn) stitched flat to</text>
<text x="258.000" y="103.600" class="ts" text-anchor="start">   the panel on every stitch line; no ease needed.</text>
<text x="258.000" y="107.300" class="ts" text-anchor="start">   If a faux-leather strip is used instead, add ease</text>
<text x="258.000" y="111.000" class="ts" text-anchor="start">   of 2 x tip diameter to the strip length per slot.</text>
<text x="258.000" y="114.700" class="ts" text-anchor="start">3. Stitch lines in pairs 0.5 cm apart (the 'land');</text>
<text x="258.000" y="118.400" class="ts" text-anchor="start">   single line at the strip ends. Stitch 3 mm, 2 passes.</text>
<text x="258.000" y="122.100" class="ts" text-anchor="start">4. Panel = 1.5 mm greyboard wrapped in lining faux</text>
<text x="258.000" y="125.800" class="ts" text-anchor="start">   leather; finished 20.5 x 12.5 to drop into the</text>
<text x="258.000" y="129.500" class="ts" text-anchor="start">   21.0 x 13.0 interior. Glue + edge-stitch in place.</text>
<text x="258.000" y="133.200" class="ts" text-anchor="start">5. Size labels heat-stamped / printed on the band</text>
<text x="258.000" y="136.900" class="ts" text-anchor="start">   at each slot (shown on drawing). Order: smallest</text>
<text x="258.000" y="140.600" class="ts" text-anchor="start">   size nearest the edge shown, as on the prototype.</text>
<text x="258.000" y="144.300" class="ts" text-anchor="start">6. Tip points toward the top edge of the drawing;</text>
<text x="258.000" y="148.000" class="ts" text-anchor="start">   1.5 cm clear above the points (prototype).</text>
<text x="32.000" y="212.000" class="tb" text-anchor="start">DETAIL A - slot band section, 2:1</text>
<rect x="32.000" y="239.000" width="80.000" height="5.000" rx="0" class="hatch"/>
<rect x="32.000" y="239.000" width="80.000" height="5.000" rx="0" class="thin"/>
<path d="M36.000,239.000 L46.000,239.000 L46.000,239.000 L47.333,237.564 L48.667,236.153 L50.000,234.790 L51.333,233.500 L52.667,232.304 L54.000,231.222 L55.333,230.273 L56.667,229.474 L58.000,228.837 L59.333,228.375 L60.667,228.094 L62.000,228.000 L63.333,228.094 L64.667,228.375 L66.000,228.837 L67.333,229.474 L68.667,230.273 L70.000,231.222 L71.333,232.304 L72.667,233.500 L74.000,234.790 L75.333,236.153 L76.667,237.564 L78.000,239.000 L88.000,239.000 L108.000,239.000" class="cut"/>
<circle cx="56.600" cy="234.000" r="5.000" class="needle"/>
<circle cx="67.400" cy="234.000" r="5.000" class="needle"/>
<line x1="46.000" y1="237.000" x2="46.000" y2="245.000" class="stitch" />
<line x1="78.000" y1="237.000" x2="78.000" y2="245.000" class="stitch" />
<line x1="88.000" y1="237.000" x2="88.000" y2="245.000" class="stitch" />
<line x1="36.000" y1="237.000" x2="36.000" y2="245.000" class="stitch" />
<line x1="46.000" y1="244.800" x2="46.000" y2="253.200" class="dim" />
<line x1="78.000" y1="244.800" x2="78.000" y2="253.200" class="dim" />
<line x1="46.000" y1="252.000" x2="78.000" y2="252.000" class="dim" marker-start="url(#ar)" marker-end="url(#ar)"/>
<text x="62.000" y="251.100" class="t" text-anchor="middle">slot width w (table)</text>
<line x1="78.000" y1="252.000" x2="88.000" y2="252.000" class="dim" marker-start="url(#ar)" marker-end="url(#ar)"/>
<text x="83.000" y="251.100" class="t" text-anchor="middle">0.5</text>
<text x="83.000" y="255.500" class="tx" text-anchor="middle">land</text>
<line x1="80.800" y1="229.000" x2="93.200" y2="229.000" class="dim" />
<line x1="80.800" y1="239.000" x2="93.200" y2="239.000" class="dim" />
<line x1="92.000" y1="229.000" x2="92.000" y2="239.000" class="dim" marker-start="url(#ar)" marker-end="url(#ar)"/>
<text x="91.100" y="234.000" class="t" text-anchor="middle" transform="rotate(-90 91.100 234.000)">d</text>
<line x1="62.000" y1="227.000" x2="72.000" y2="219.000" class="dim" marker-start="url(#dot)"/>
<text x="72.800" y="220.000" class="t" text-anchor="start">2 tips side by side (1 pair)</text>
<line x1="39.000" y1="241.600" x2="38.000" y2="255.600" class="dim" marker-start="url(#dot)"/>
<text x="38.800" y="256.600" class="t" text-anchor="start">panel: 1.5 mm board + lining</text>
<line x1="83.000" y1="239.000" x2="89.000" y2="257.000" class="dim" marker-start="url(#dot)"/>
<text x="89.800" y="258.000" class="t" text-anchor="start">double stitch line, 0.5 apart</text>
</svg>
